<?xml version="1.0" standalone="no"?>
<!DOCTYPE svg PUBLIC "-//W3C//DTD SVG 20010904//EN"
 "http://www.w3.org/TR/2001/REC-SVG-20010904/DTD/svg10.dtd">
<svg version="1.0" xmlns="http://www.w3.org/2000/svg"
 width="104.000000pt" height="104.000000pt" viewBox="0 0 104.000000 104.000000"
 preserveAspectRatio="xMidYMid meet">
<metadata>
Created by potrace 1.11, written by Peter Selinger 2001-2013
</metadata>
<g transform="translate(0.000000,104.000000) scale(0.100000,-0.100000)"
fill="#000000" stroke="none">
<path d="M239 1003 c-14 -44 -7 -137 15 -185 15 -36 15 -38 -2 -38 -36 0 -124
53 -152 92 l-28 38 -18 -46 c-37 -96 -12 -208 66 -292 34 -37 37 -47 14 -38
-14 6 -16 1 -10 -36 10 -62 34 -107 57 -105 25 2 50 65 56 144 5 59 7 62 26
52 11 -6 35 -12 53 -13 19 -2 37 -5 40 -8 5 -6 25 -4 92 6 44 7 71 14 82 21
16 10 11 -7 -11 -40 -12 -17 -38 -40 -58 -52 -34 -19 -97 -39 -113 -35 -5 1
-8 -2 -8 -7 0 -8 13 -10 90 -11 84 -1 180 33 242 85 17 14 33 24 35 21 10 -10
-9 -65 -28 -82 -21 -18 -27 -50 -7 -38 6 4 25 9 42 10 17 2 38 5 47 6 22 5 71
38 86 57 6 9 14 14 16 11 6 -6 16 -74 17 -108 0 -18 5 -23 22 -20 29 4 60 59
61 109 l1 41 18 -22 c16 -20 18 -21 20 -4 6 76 -22 146 -64 160 -19 6 -20 7
-4 16 9 5 25 6 36 3 15 -5 18 -3 14 8 -10 28 -73 40 -133 25 -11 -2 -15 10
-17 55 -1 32 -4 61 -7 64 -3 2 -13 -12 -22 -31 -19 -40 -35 -55 -35 -33 0 19
-49 63 -85 77 -16 6 -71 13 -120 14 -115 3 -186 33 -262 110 l-52 53 -12 -34z"/>
<path d="M278 413 c-21 -8 -38 -21 -38 -29 0 -18 4 -18 40 1 17 9 30 13 30 9
0 -4 6 -2 13 3 10 8 51 10 60 4 1 -2 13 -4 26 -7 14 -2 30 -9 37 -15 19 -15
38 -1 23 17 -6 7 -15 11 -20 8 -5 -3 -9 0 -9 6 0 6 -4 9 -9 5 -5 -3 -12 -1
-15 3 -9 14 -98 11 -138 -5z"/>
<path d="M641 382 c-6 -2 -9 -8 -5 -13 3 -5 43 -9 90 -9 46 0 84 -3 84 -7 0
-5 -38 -7 -86 -5 -69 3 -90 0 -112 -15 -35 -23 -91 -24 -121 -1 -20 15 -43 18
-141 18 -103 0 -120 -2 -144 -21 -14 -11 -30 -18 -35 -14 -10 5 -31 -24 -31
-44 0 -5 9 -13 20 -16 14 -4 22 -19 27 -48 4 -25 17 -52 33 -68 25 -25 29 -26
143 -25 140 1 158 12 167 99 4 43 8 52 24 52 17 0 20 -8 21 -45 3 -93 35 -111
189 -107 94 3 100 5 122 31 13 15 24 37 24 50 0 12 11 37 25 56 23 31 24 35 8
52 -9 10 -18 16 -21 13 -3 -3 -14 3 -24 12 -11 9 -31 19 -46 21 -34 4 -42 12
-14 12 12 0 22 6 22 13 0 9 -28 12 -104 12 -58 0 -109 -1 -115 -3z m-291 -85
c0 -4 -4 -6 -9 -3 -5 3 -15 -2 -22 -11 -12 -15 -12 -16 5 -10 18 7 46 -7 46
-24 0 -4 -7 -15 -16 -23 -12 -12 -12 -16 -2 -17 7 0 21 -2 30 -4 10 -2 27 8
37 22 16 19 18 30 10 49 -12 33 -13 32 17 26 14 -2 29 -14 33 -25 11 -30 4
-99 -11 -108 -7 -5 -56 -9 -109 -9 -110 0 -122 7 -133 77 -4 29 -2 46 8 55 15
15 116 20 116 5z m60 9 c0 -3 -4 -8 -10 -11 -5 -3 -10 -1 -10 4 0 6 5 11 10
11 6 0 10 -2 10 -4z m320 -8 c0 -4 -10 -7 -21 -5 -12 1 -24 -4 -26 -11 -3 -8
1 -12 12 -10 10 2 22 -5 29 -15 9 -14 7 -21 -6 -31 -10 -7 -15 -16 -11 -19 13
-14 50 -6 71 14 18 16 21 27 16 55 l-6 34 38 -6 c22 -3 41 -8 43 -10 2 -2 3
-25 2 -51 -2 -74 -17 -83 -131 -83 -114 0 -123 6 -118 76 2 38 8 51 25 59 26
13 83 15 83 3z m50 8 c0 -2 -7 -6 -15 -10 -8 -3 -15 -1 -15 4 0 6 7 10 15 10
8 0 15 -2 15 -4z"/>
<path d="M627 71 c-3 -11 -17 -21 -38 -25 -34 -6 -48 -5 -101 9 -22 6 -28 4
-28 -8 0 -14 13 -19 78 -32 12 -2 43 2 69 10 25 8 50 12 54 9 17 -10 20 19 3
37 -22 24 -30 24 -37 0z"/>
</g>
</svg>
